# xmcd
#
# Track frame offsets: 
#        150
#        13980
#        25307
#        42022
#        55172
#        70240
#        88380
#        106797
#        118547
#        130980
#        146870
#        157885
#        172435
#        186997
#        201927
#        216100
#        230042
#        245870
#        254922
#        271425
#        288530
#        303320
#
# Disc length: 4217 seconds
#
# Revision: 3
# Processed by: cddbd v1.5.2PL0 Copyright (c) Steve Scherf et al.
# Submitted via: ExactAudioCopyFreeDBPlugin 1.0
#
DISCID=63107716
DTITLE=Pousette-Dart Band - The Best of Pousette-Dart Band
DYEAR=1998
DGENRE=Country
TTITLE0=What Can I Say
TTITLE1=Dancer
TTITLE2=Freezing Hot
TTITLE3=There's Been a Mistake
TTITLE4=Harder
TTITLE5=Woman in My Dreams
TTITLE6=All Your Lonely Hours
TTITLE7=Halo
TTITLE8=Smile on Me
TTITLE9=County Line
TTITLE10=Fall on Me
TTITLE11=Amnesia
TTITLE12=I Think I Know
TTITLE13=May You Dance
TTITLE14=I Don't Know Why
TTITLE15=Winterness
TTITLE16=Listen to the Spirit
TTITLE17=Yaicha
TTITLE18=Stand By Me
TTITLE19=Gotta Get Far Away
TTITLE20=Cheated
TTITLE21=Hallelujah I'm a Bum
EXTD=
EXTT0=
EXTT1=
EXTT2=
EXTT3=
EXTT4=
EXTT5=
EXTT6=
EXTT7=
EXTT8=
EXTT9=
EXTT10=
EXTT11=
EXTT12=
EXTT13=
EXTT14=
EXTT15=
EXTT16=
EXTT17=
EXTT18=
EXTT19=
EXTT20=
EXTT21=
PLAYORDER=
